<?xml version="1.0" encoding="UTF-8" standalone="no"?>
<!-- Created with Inkscape (http://www.inkscape.org/) -->

<svg
   xmlns:dc="http://purl.org/dc/elements/1.1/"
   xmlns:cc="http://creativecommons.org/ns#"
   xmlns:rdf="http://www.w3.org/1999/02/22-rdf-syntax-ns#"
   xmlns:svg="http://www.w3.org/2000/svg"
   xmlns="http://www.w3.org/2000/svg"
   xmlns:sodipodi="http://sodipodi.sourceforge.net/DTD/sodipodi-0.dtd"
   xmlns:inkscape="http://www.inkscape.org/namespaces/inkscape"
   width="68.015701mm"
   height="67.977348mm"
   viewBox="0 0 68.015701 67.977348"
   version="1.1"
   id="svg8"
   inkscape:version="0.92.1 r15371"
   sodipodi:docname="drawing.svg">
  <defs
     id="defs2" />
  <sodipodi:namedview
     id="base"
     pagecolor="#ffffff"
     bordercolor="#666666"
     borderopacity="1.0"
     inkscape:pageopacity="0.0"
     inkscape:pageshadow="2"
     inkscape:zoom="1.979899"
     inkscape:cx="172.62262"
     inkscape:cy="46.499364"
     inkscape:document-units="mm"
     inkscape:current-layer="layer1"
     showgrid="false"
     inkscape:window-width="1704"
     inkscape:window-height="1340"
     inkscape:window-x="3640"
     inkscape:window-y="0"
     inkscape:window-maximized="0" />
  <metadata
     id="metadata5">
    <rdf:RDF>
      <cc:Work
         rdf:about="">
        <dc:format>image/svg+xml</dc:format>
        <dc:type
           rdf:resource="http://purl.org/dc/dcmitype/StillImage" />
        <dc:title></dc:title>
      </cc:Work>
    </rdf:RDF>
  </metadata>
  <g
     inkscape:label="Layer 1"
     inkscape:groupmode="layer"
     id="layer1"
     transform="translate(-63.372435,-42.881215)">
    <path
       style="fill:#000000;stroke-width:0.26458332"
       d="M 80.314656,105.57143 C 67.424915,101.2596 64.463257,100.1809 63.972191,99.619135 l -0.599756,-0.68609 0.07059,-22.06685 0.07059,-22.06684 0.661458,-0.63691 c 0.486417,-0.46836 4.897467,-2.04531 16.668767,-5.95907 8.804022,-2.92719 16.245417,-5.32216 16.53644,-5.32216 0.291024,0 7.73241,2.39497 16.53644,5.32216 11.7713,3.91376 16.18234,5.49071 16.66876,5.95907 l 0.66146,0.63691 0.0706,22.07761 0.0706,22.07761 -0.73205,0.77879 c -0.63168,0.672015 -2.87258,1.489575 -16.34249,5.962295 -12.34159,4.09805 -15.887446,5.17913 -16.933329,5.16272 -0.978331,-0.0154 -5.423296,-1.39241 -17.065605,-5.28695 z m 33.734354,-0.14036 c 13.47042,-4.47288 15.7108,-5.29025 16.34254,-5.962345 l 0.7321,-0.77885 -0.0707,-21.84188 -0.0706,-21.84189 -0.7138,-0.61391 c -0.47808,-0.41119 -6.0254,-2.38236 -16.79878,-5.96922 l -16.084981,-5.3553 -16.088078,5.35407 c -10.799523,3.59405 -16.32319,5.55629 -16.803301,5.96922 l -0.715222,0.61514 -0.07064,21.83112 -0.07064,21.83111 0.599808,0.68616 c 0.491132,0.56183 3.452118,1.640305 16.342514,5.952355 9.29976,3.11092 16.175839,5.27469 16.801022,5.28695 0.709612,0.0139 6.201748,-1.68714 16.668748,-5.16273 z m -32.657057,-2.23986 c -8.211496,-2.75033 -15.017758,-5.092485 -15.125025,-5.204785 -0.270991,-0.28369 -0.589209,-41.67693 -0.323106,-42.02918 0.118594,-0.15698 7.240313,-2.64663 15.826042,-5.53255 l 15.610416,-5.24713 15.47812,5.21483 c 8.51297,2.86815 15.60492,5.3578 15.75988,5.53255 0.19693,0.22208 0.23676,6.61049 0.13229,21.21981 l -0.14946,20.90209 -15.21354,5.071935 c -8.36745,2.78957 -15.630256,5.07218 -16.139582,5.07248 -0.509323,2.7e-4 -7.644539,-2.24972 -15.856035,-5.00005 z m 29.614367,-8.854845 c 5.89359,-1.96945 10.8696,-3.6769 11.05779,-3.79432 0.49382,-0.30811 4.70082,-23.0005 4.32865,-23.34858 -0.20749,-0.19406 -22.14415,6.92589 -22.50821,7.30546 -0.1954,0.20371 -4.519896,22.43614 -4.519896,23.23694 0,0.42711 1.510276,-0.0139 11.641666,-3.3995 z m -6.34712,-1.38275 c 0.005,-0.86912 2.90901,-15.51929 3.1171,-15.72738 0.24982,-0.24982 13.4647,-4.71168 13.95477,-4.71168 0.18901,0 0.39256,0.14674 0.45235,0.3261 0.14342,0.43027 -0.47521,3.3709 -0.76471,3.63506 -0.12427,0.11338 -2.13094,0.82998 -4.45927,1.59244 -2.32833,0.76247 -4.38216,1.57399 -4.56406,1.80338 -0.35862,0.45224 -0.45463,1.63885 -0.1326,1.63885 0.10896,0 1.84582,-0.54914 3.85969,-1.22031 2.61933,-0.87296 3.74281,-1.13906 3.94699,-0.93488 0.34612,0.34612 -0.18575,3.03461 -0.67702,3.4222 -0.17398,0.13726 -2.04274,0.81616 -4.15279,1.50866 -2.11005,0.69249 -3.92245,1.33617 -4.02755,1.43039 -0.10509,0.0942 -0.45307,1.41883 -0.77329,2.94357 -0.32021,1.52473 -0.68964,2.91427 -0.82095,3.08785 -0.23693,0.31322 -3.99931,1.66877 -4.63172,1.66877 -0.1814,0 -0.32853,-0.20836 -0.32694,-0.46302 z m 2.64295,-0.72408 c 0.80037,-0.25873 1.5898,-0.5765 1.75431,-0.70614 0.1645,-0.12965 0.50949,-1.33428 0.76663,-2.67697 0.7221,-3.77052 0.34373,-3.39634 5.0056,-4.9501 2.52082,-0.84016 4.20819,-1.54439 4.34542,-1.81358 0.43139,-0.84623 0.56911,-2.15986 0.22643,-2.15986 -0.17809,0 -1.97151,0.54914 -3.98537,1.22031 -2.39614,0.79857 -3.75136,1.13052 -3.92137,0.9605 -0.34863,-0.34863 -0.005,-2.07437 0.53587,-2.69267 0.23958,-0.27378 2.28857,-1.10453 4.60202,-1.86586 2.56308,-0.84348 4.25755,-1.54194 4.39694,-1.81242 0.41418,-0.8037 0.60728,-2.42444 0.28887,-2.42444 -0.22614,0 -12.87944,4.193 -13.14616,4.35632 -0.0668,0.0409 -2.98586,14.7814 -2.98586,15.07795 0,0.11083 0.14883,0.14658 0.33073,0.0795 0.1819,-0.0671 0.98558,-0.33376 1.78594,-0.59249 z m -13.072549,-1.90686 c 0.884891,-0.95481 0.737957,-1.67719 -0.421196,-2.07073 -0.80096,-0.27193 -1.011272,-0.24813 -1.557036,0.17619 -0.760677,0.59141 -1.147577,0.6106 -2.12459,0.10536 -1.025089,-0.53009 -1.61004,-1.89728 -1.61004,-3.76308 0,-1.77696 0.501089,-2.73087 1.434531,-2.73087 0.764931,0 1.894961,0.87172 2.402612,1.85341 0.37151,0.71842 2.084983,1.57308 2.440683,1.21738 0.37787,-0.37787 -0.573076,-2.40704 -1.617474,-3.45144 -1.117285,-1.11729 -3.031699,-2.0006 -4.335933,-2.0006 -0.951693,0 -2.115261,0.79176 -2.569102,1.74816 -0.460707,0.97086 -0.522815,3.22713 -0.127966,4.64876 0.774914,2.79001 3.466193,4.98017 6.119662,4.98017 1.077529,0 1.420611,-0.12439 1.965849,-0.71271 z m -12.592029,-5.843 c 0,-3.90656 0.254763,-4.43312 2.016994,-4.16885 l 1.158006,0.17365 v -1.2018 c 0,-1.0659 -0.07589,-1.22084 -0.671192,-1.37025 -0.369156,-0.0926 -1.021655,-0.0984 -1.449997,-0.0127 -0.591646,0.11833 -0.841963,0.0378 -1.04162,-0.33532 -0.144549,-0.27009 -0.552551,-0.56379 -0.906673,-0.65267 -0.354122,-0.0889 -0.836075,-0.23536 -1.071008,-0.32551 -0.385724,-0.14802 -0.420182,0.34355 -0.355309,5.0687 l 0.07184,5.23261 0.926042,0.334 c 0.509323,0.1837 1.015338,0.34306 1.124479,0.35414 0.109141,0.0111 0.198437,-1.38213 0.198437,-3.096 z m -4.459485,-2.77085 c -0.07953,-3.29175 -0.189062,-4.21482 -0.594684,-5.01176 -1.311054,-2.57588 -5.673131,-4.0626 -7.260982,-2.47475 -0.935111,0.93511 -0.813635,1.36154 0.517013,1.81494 1.037704,0.35358 1.229105,0.35356 1.734171,-2e-4 1.045776,-0.73249 2.920218,0.34019 2.920218,1.67114 0,0.84364 -0.267324,0.91879 -1.716674,0.4826 -1.899442,-0.57165 -2.958201,-0.49626 -3.719311,0.26485 -1.141345,1.14135 -0.695963,3.35898 0.953323,4.74676 1.178888,0.99197 1.988873,1.2856 3.490474,1.26534 0.691224,-0.009 1.256771,0.10111 1.256771,0.24541 0,0.14429 0.386953,0.43054 0.859896,0.6361 1.700206,0.73898 1.667447,0.81544 1.559785,-3.64043 z m -5.53692,0.25992 c -1.166616,-1.24181 -0.513255,-2.49653 1.158712,-2.22521 1.349346,0.21897 1.7347,0.62851 1.641176,1.7442 -0.07572,0.90329 -0.130572,0.95245 -1.146242,1.02723 -0.841377,0.0619 -1.190705,-0.0534 -1.653646,-0.54622 z m 41.370063,-20.98092 c 0.78369,-0.22783 1.48648,-0.51389 1.56176,-0.63569 0.16921,-0.27378 1.19997,0.0924 -15.728776,-5.58854 l -14.146479,-4.74731 -1.937006,0.57504 c -1.065353,0.31626 -1.993545,0.66651 -2.062649,0.77832 -0.0691,0.11181 0.500966,0.39151 1.266821,0.62155 0.765855,0.23005 7.524181,2.43394 15.018504,4.89754 7.494315,2.46361 13.845835,4.48694 14.114485,4.4963 0.26864,0.009 1.12965,-0.16939 1.91334,-0.39721 z m 11.02661,-1.74133 c -0.14877,-0.14877 -0.55211,-0.23065 -0.89632,-0.18195 -0.80287,0.1136 -1.01852,1.22815 -0.33443,1.72838 0.41609,0.30425 0.53665,0.24752 0.9876,-0.46469 0.34991,-0.55265 0.42742,-0.89748 0.24315,-1.08174 z m 3.17107,0.44706 c 0.26142,-1.26664 0.11577,-1.73109 -0.54287,-1.73109 -0.87848,0 -1.42856,0.88583 -1.22474,1.97229 0.15905,0.84783 0.26589,0.95713 0.86647,0.88645 0.56311,-0.0663 0.72351,-0.26699 0.90114,-1.12765 z"
       id="path3815"
       inkscape:connector-curvature="0" />
  </g>
</svg>
